<svg xmlns="http://www.w3.org/2000/svg" width="20" height="20" viewBox="0 0 20 21" fill="currentColor">
  <path d="M19.8913 11.3902C19.9994 11.1167 20.0277 10.8158 19.9725 10.5255C19.9173 10.2352 19.7812 9.96856 19.5812 9.75933L13.8666 3.77463C13.7348 3.63173 13.5772 3.51775 13.4029 3.43934C13.2286 3.36093 13.0411 3.31965 12.8514 3.31793C12.6617 3.3162 12.4736 3.35406 12.298 3.42929C12.1224 3.50451 11.9629 3.61561 11.8288 3.75609C11.6946 3.89657 11.5885 4.06362 11.5167 4.24749C11.4449 4.43137 11.4087 4.62838 11.4104 4.82705C11.412 5.02571 11.4514 5.22203 11.5263 5.40457C11.6012 5.58711 11.71 5.75221 11.8465 5.89022L15.1238 9.32245H1.42866C1.04976 9.32245 0.686372 9.48008 0.418446 9.76066C0.15052 10.0413 0 10.4218 0 10.8186C0 11.2154 0.15052 11.596 0.418446 11.8766C0.686372 12.1572 1.04976 12.3148 1.42866 12.3148H15.1238L11.8479 15.7455C11.7114 15.8835 11.6026 16.0486 11.5277 16.2312C11.4529 16.4137 11.4134 16.61 11.4118 16.8087C11.4101 17.0074 11.4463 17.2044 11.5181 17.3882C11.59 17.5721 11.696 17.7392 11.8302 17.8797C11.9643 18.0201 12.1238 18.1312 12.2994 18.2065C12.475 18.2817 12.6631 18.3195 12.8528 18.3178C13.0425 18.3161 13.23 18.2748 13.4043 18.1964C13.5786 18.118 13.7362 18.004 13.868 17.8611L19.5827 11.8764C19.715 11.7371 19.8199 11.5719 19.8913 11.3902Z" fill="currentColor"/>
</svg>