<svg xmlns="http://www.w3.org/2000/svg" width="16" height="16" viewBox="0 0 16 16" fill="none">
  <g clip-path="url(#clip0_1178_345)">
    <path d="M11.7656 5.984C11.6156 5.83018 11.4121 5.74377 11.2 5.74377C10.9879 5.74377 10.7844 5.83018 10.6344 5.984L8.8 7.86544V0.820513C8.8 0.602899 8.71571 0.394199 8.56569 0.240323C8.41566 0.0864466 8.21217 0 8 0C7.78783 0 7.58434 0.0864466 7.43431 0.240323C7.28429 0.394199 7.2 0.602899 7.2 0.820513V7.86544L5.3656 5.984C5.2918 5.90563 5.20353 5.84312 5.10592 5.80012C5.00832 5.75712 4.90334 5.73448 4.79712 5.73354C4.6909 5.73259 4.58555 5.75335 4.48724 5.79461C4.38892 5.83586 4.2996 5.89679 4.22448 5.97383C4.14937 6.05087 4.08997 6.14248 4.04974 6.24332C4.00952 6.34416 3.98928 6.4522 3.9902 6.56115C3.99112 6.6701 4.01319 6.77776 4.05512 6.87787C4.09705 6.97798 4.15799 7.06852 4.2344 7.14421L7.4344 10.4263C7.50871 10.5027 7.59699 10.5633 7.69419 10.6047C7.79138 10.646 7.89557 10.6673 8.0008 10.6673C8.10603 10.6673 8.21022 10.646 8.30741 10.6047C8.40461 10.5633 8.49289 10.5027 8.5672 10.4263L11.7672 7.14421C11.917 6.99012 12.0009 6.78133 12.0006 6.56376C12.0003 6.34619 11.9158 6.13765 11.7656 5.984Z" fill="white"/>
    <path d="M14.4 9.4359H12.36L9.98 11.8769C9.71999 12.1436 9.41131 12.3552 9.07158 12.4995C8.73185 12.6439 8.36773 12.7182 8 12.7182C7.63227 12.7182 7.26815 12.6439 6.92842 12.4995C6.58869 12.3552 6.28001 12.1436 6.02 11.8769L3.64 9.4359H1.6C1.17565 9.4359 0.768687 9.60879 0.468629 9.91654C0.168571 10.2243 0 10.6417 0 11.0769V14.359C0 14.7942 0.168571 15.2116 0.468629 15.5194C0.768687 15.8271 1.17565 16 1.6 16H14.4C14.8243 16 15.2313 15.8271 15.5314 15.5194C15.8314 15.2116 16 14.7942 16 14.359V11.0769C16 10.6417 15.8314 10.2243 15.5314 9.91654C15.2313 9.60879 14.8243 9.4359 14.4 9.4359ZM12.4 14.359C12.1627 14.359 11.9307 14.2868 11.7333 14.1516C11.536 14.0163 11.3822 13.8241 11.2913 13.5992C11.2005 13.3743 11.1768 13.1268 11.2231 12.8881C11.2694 12.6493 11.3836 12.43 11.5515 12.2579C11.7193 12.0858 11.9331 11.9686 12.1659 11.9211C12.3987 11.8736 12.6399 11.898 12.8592 11.9911C13.0785 12.0843 13.2659 12.242 13.3978 12.4444C13.5296 12.6468 13.6 12.8848 13.6 13.1282C13.6 13.4546 13.4736 13.7677 13.2485 13.9985C13.0235 14.2293 12.7183 14.359 12.4 14.359Z" fill="white"/>
  </g>
  <defs>
    <clipPath id="clip0_1178_345">
      <rect width="16" height="16" fill="white"/>
    </clipPath>
  </defs>
</svg>