<svg xmlns="http://www.w3.org/2000/svg" width="12" height="12" viewBox="0 0 12 12" fill="none">
  <path d="M6.00009 2.28788e-06C5.0885 -0.000852398 4.19405 0.237773 3.41364 0.690027C2.63323 1.14228 1.99662 1.79092 1.57277 2.56566C1.14893 3.34041 0.954013 4.21173 1.00915 5.08521C1.06428 5.9587 1.36736 6.80105 1.88554 7.521C1.90628 7.56012 1.93144 7.59694 1.96055 7.6308L2.03555 7.7184C2.10555 7.8054 2.17743 7.8894 2.23931 7.9584L5.51757 11.7828C5.57635 11.8509 5.65009 11.9057 5.73351 11.9432C5.81692 11.9808 5.90796 12.0002 6.00009 12C6.09248 12 6.18373 11.9804 6.26727 11.9426C6.35081 11.9047 6.42457 11.8495 6.48324 11.781L9.66587 8.058C9.79478 7.92493 9.91541 7.78469 10.0271 7.638L10.1065 7.545C10.1368 7.50974 10.1624 7.47105 10.1828 7.4298C10.6767 6.70581 10.9575 5.86709 10.9956 5.00242C11.0336 4.13775 10.8274 3.27929 10.3987 2.51792C9.97011 1.75655 9.33503 1.12058 8.56071 0.677335C7.78638 0.234089 6.90163 5.43947e-05 6.00009 2.28788e-06ZM6.00009 3C6.37095 3 6.73347 3.10557 7.04183 3.30336C7.35018 3.50114 7.59052 3.78226 7.73244 4.11117C7.87436 4.44008 7.91149 4.802 7.83914 5.15116C7.76679 5.50033 7.58821 5.82106 7.32597 6.07279C7.06374 6.32453 6.72963 6.49596 6.3659 6.56541C6.00217 6.63487 5.62515 6.59922 5.28253 6.46298C4.9399 6.32675 4.64706 6.09604 4.44102 5.80003C4.23498 5.50402 4.12501 5.15601 4.12501 4.8C4.12501 4.32261 4.32256 3.86477 4.67421 3.52721C5.02585 3.18964 5.50279 3 6.00009 3Z" fill="#133742"/>
</svg>