<svg xmlns="http://www.w3.org/2000/svg" width="16" height="16" viewBox="0 0 16 16" fill="none">
  <g clip-path="url(#clip0_1178_903)">
    <path d="M4 16H12C12.2122 16 12.4157 15.9157 12.5657 15.7657C12.7157 15.6157 12.8 15.4122 12.8 15.2V11.2H3.2V15.2C3.2 15.4122 3.28429 15.6157 3.43431 15.7657C3.58434 15.9157 3.78783 16 4 16Z" fill="white"/>
    <path d="M14.4 5.6H1.6C1.17565 5.6 0.768687 5.76857 0.468629 6.06863C0.168571 6.36869 0 6.77565 0 7.2V12C0 12.4243 0.168571 12.8313 0.468629 13.1314C0.768687 13.4314 1.17565 13.6 1.6 13.6V11.2C1.6 10.7757 1.76857 10.3687 2.06863 10.0686C2.36869 9.76857 2.77565 9.6 3.2 9.6H12.8C13.2243 9.6 13.6313 9.76857 13.9314 10.0686C14.2314 10.3687 14.4 10.7757 14.4 11.2V13.6C14.8243 13.6 15.2313 13.4314 15.5314 13.1314C15.8314 12.8313 16 12.4243 16 12V7.2C16 6.77565 15.8314 6.36869 15.5314 6.06863C15.2313 5.76857 14.8243 5.6 14.4 5.6Z" fill="white"/>
    <path d="M13.6 4V1.6C13.6 1.17565 13.4314 0.768687 13.1314 0.468629C12.8313 0.168571 12.4243 0 12 0H4C3.57565 0 3.16869 0.168571 2.86863 0.468629C2.56857 0.768687 2.4 1.17565 2.4 1.6V4H13.6Z" fill="white"/>
  </g>
  <defs>
    <clipPath id="clip0_1178_903">
      <rect width="16" height="16" fill="white"/>
    </clipPath>
  </defs>
</svg>